<?xml version="1.0" standalone="no"?>
<!DOCTYPE svg PUBLIC "-//W3C//DTD SVG 20010904//EN"
 "http://www.w3.org/TR/2001/REC-SVG-20010904/DTD/svg10.dtd">
<svg version="1.0" xmlns="http://www.w3.org/2000/svg"
 width="250.000000pt" height="250.000000pt" viewBox="0 0 250.000000 250.000000"
 preserveAspectRatio="xMidYMid meet">
<metadata>
Created by potrace 1.16, written by Peter Selinger 2001-2019
</metadata>
<g transform="translate(0.000000,250.000000) scale(0.100000,-0.100000)"
fill="#000000" stroke="none">
<path d="M870 1364 c0 -14 3 -15 18 -3 9 7 19 15 21 16 2 2 -5 3 -17 3 -14 0
-22 -6 -22 -16z"/>
<path d="M920 1285 c0 -78 3 -95 15 -95 12 0 15 17 15 95 0 78 -3 95 -15 95
-12 0 -15 -17 -15 -95z"/>
<path d="M970 1370 c20 -13 40 -13 40 0 0 6 -12 10 -27 10 -22 0 -25 -2 -13
-10z"/>
<path d="M1137 1362 c-21 -23 -23 -39 -3 -22 9 6 36 10 63 9 37 -3 48 0 48 11
0 24 -87 26 -108 2z"/>
<path d="M1270 1285 c0 -78 3 -95 15 -95 12 0 15 17 15 95 0 78 -3 95 -15 95
-12 0 -15 -17 -15 -95z"/>
<path d="M1378 1333 c-5 -70 2 -143 13 -143 5 0 9 42 9 95 0 98 -15 132 -22
48z"/>
<path d="M1430 1285 c0 -78 3 -95 15 -95 12 0 15 17 15 95 0 78 -3 95 -15 95
-12 0 -15 -17 -15 -95z"/>
<path d="M1490 1285 c0 -52 4 -95 9 -95 5 0 11 43 13 95 2 71 0 95 -9 95 -10
0 -13 -26 -13 -95z"/>
<path d="M1579 1362 c7 -14 6 -24 -5 -40 -17 -25 -7 -29 20 -9 23 17 18 60 -7
65 -16 3 -17 1 -8 -16z"/>
<path d="M1630 1370 c0 -13 11 -13 30 0 12 8 11 10 -7 10 -13 0 -23 -4 -23
-10z"/>
<path d="M1680 1285 c0 -78 3 -95 15 -95 12 0 15 17 15 95 0 78 -3 95 -15 95
-12 0 -15 -17 -15 -95z"/>
<path d="M1730 1370 c19 -13 30 -13 30 0 0 6 -10 10 -22 10 -19 0 -20 -2 -8
-10z"/>
<path d="M1120 1310 c0 -14 26 -30 61 -36 19 -4 42 -11 52 -16 18 -9 22 -1 8
21 -9 15 -121 44 -121 31z"/>
<path d="M1530 1278 c0 -33 60 -102 75 -87 5 6 -54 93 -66 97 -5 2 -9 -2 -9
-10z"/>
<path d="M1120 1216 c0 -31 76 -35 111 -6 l24 19 -30 -8 c-16 -4 -41 -4 -55 0
-39 11 -50 10 -50 -5z"/>
</g>
</svg>
